# xmcd
# 
# Track frame offsets:
#   150
#   20030
#   33760
#   50087
#   67252
#   84137
#   102525
#   121450
#   139050
#   155440
#   175105
#   189867
#   209532
#   228962
# 
# Disc length: 3242 seconds
# 
# Revision: 1
# Processed by: cddbd v1.5.1PL2 Copyright (c) Steve Scherf et al.
# Submitted via: Synapstar 1.0 
# 
DISCID=be0ca80e
DTITLE=Various Artist - SD044 - Country Hits Today
DYEAR=1900
DGENRE=Country
TTITLE0=Alan Jackson - Between The Devil And Me
TTITLE1=Wynonna - When Love Starts Talkin'
TTITLE2=John Michael Montgomery - Angel In My Eyes
TTITLE3=Kenny Chesney - A Chance
TTITLE4=Alabama - Of Course I'm Allright
TTITLE5=Toby Keith With Sting - I'm So Happy I Can't Stop Crying
TTITLE6=LeAnn Rimes - On The Side Of Angels
TTITLE7=Paul Brandt - A Little In Love
TTITLE8=The Kinleys - Please
TTITLE9=The Buffalo Club - Heart Hold On
TTITLE10=Rhett Akins - More Than Everything
TTITLE11=Blackhawk - Postmarked Birmingham
TTITLE12=John Anderson - Small Town
TTITLE13=Brooks and Dunn - He's Got You
EXTD=MediaType: Karaoke CD+G Producer: StarDisc
EXTT0=
EXTT1=
EXTT2=
EXTT3=
EXTT4=
EXTT5=
EXTT6=
EXTT7=
EXTT8=
EXTT9=
EXTT10=
EXTT11=
EXTT12=
EXTT13=
PLAYORDER=
